<?xml version="1.0" encoding="UTF-8" standalone="no"?>
<!-- Created with Inkscape (http://www.inkscape.org/) -->

<svg
   xmlns:dc="http://purl.org/dc/elements/1.1/"
   xmlns:cc="http://creativecommons.org/ns#"
   xmlns:rdf="http://www.w3.org/1999/02/22-rdf-syntax-ns#"
   xmlns:svg="http://www.w3.org/2000/svg"
   xmlns="http://www.w3.org/2000/svg"
   xmlns:sodipodi="http://sodipodi.sourceforge.net/DTD/sodipodi-0.dtd"
   xmlns:inkscape="http://www.inkscape.org/namespaces/inkscape"
   width="256"
   height="256"
   viewBox="0 0 256 256"
   id="svg5332"
   version="1.1"
   inkscape:version="0.91 r13725"
   sodipodi:docname="fb.svg">
  <defs
     id="defs5334" />
  <sodipodi:namedview
     id="base"
     pagecolor="#ffffff"
     bordercolor="#666666"
     borderopacity="1.0"
     inkscape:pageopacity="0.0"
     inkscape:pageshadow="2"
     inkscape:zoom="2.0149341"
     inkscape:cx="100.90816"
     inkscape:cy="136.10325"
     inkscape:document-units="px"
     inkscape:current-layer="layer1"
     showgrid="true"
     units="px"
     width="256px"
     inkscape:window-width="1366"
     inkscape:window-height="727"
     inkscape:window-x="0"
     inkscape:window-y="20"
     inkscape:window-maximized="1">
    <inkscape:grid
       type="xygrid"
       id="grid5894" />
  </sodipodi:namedview>
  <metadata
     id="metadata5337">
    <rdf:RDF>
      <cc:Work
         rdf:about="">
        <dc:format>image/svg+xml</dc:format>
        <dc:type
           rdf:resource="http://purl.org/dc/dcmitype/StillImage" />
        <dc:title />
      </cc:Work>
    </rdf:RDF>
  </metadata>
  <g
     inkscape:label="Layer 1"
     inkscape:groupmode="layer"
     id="layer1"
     transform="translate(0,-796.3622)">
    <g
       transform="matrix(10.009481,0,0,-10.010114,-557.75254,2990.437)"
       id="g5295">
      <g
         transform="translate(68.5103,217.3066)"
         id="g22"
         style="fill:#f3f2ec;fill-opacity:1">
        <path
           inkscape:connector-curvature="0"
           id="path24"
           style="fill:#f3f2ec;fill-opacity:1;fill-rule:nonzero;stroke:none"
           d="m 0,0 c -4.726,0 -8.914,-3.043 -10.374,-7.537 -1.46,-4.494 0.139,-9.418 3.962,-12.195 3.824,-2.779 9,-2.779 12.824,0 3.823,2.777 5.422,7.701 3.962,12.195 C 8.914,-3.043 4.726,0 0,0 m 11.401,-7.203 c 1.605,-4.94 -0.153,-10.351 -4.355,-13.403 -4.201,-3.053 -9.891,-3.053 -14.092,0 -4.202,3.052 -5.96,8.463 -4.355,13.403 1.605,4.939 6.208,8.283 11.401,8.283 5.193,0 9.796,-3.344 11.401,-8.283" />
      </g>
      <g
         transform="translate(70.1396,209.8447)"
         id="g26"
         style="fill:#f3f2ec;fill-opacity:1">
        <path
           inkscape:connector-curvature="0"
           id="path28"
           style="fill:#f3f2ec;fill-opacity:1;fill-rule:evenodd;stroke:none"
           d="m 0,0 c 0.325,0.012 0.65,0.003 0.976,0.003 l 0.134,0 0,1.692 C 0.937,1.712 0.755,1.737 0.573,1.746 0.24,1.761 -0.094,1.777 -0.428,1.77 -0.938,1.759 -1.42,1.635 -1.842,1.333 -2.325,0.985 -2.59,0.497 -2.691,-0.079 -2.733,-0.316 -2.744,-0.563 -2.75,-0.805 -2.759,-1.185 -2.751,-1.563 -2.751,-1.943 l 0,-0.143 -1.619,0 0,-1.89 1.609,0 0,-4.749 1.967,0 0,4.742 1.604,0 c 0.082,0.629 0.162,1.251 0.246,1.898 -0.129,0 -0.244,10e-4 -0.36,0 -0.456,-0.002 -1.503,0 -1.503,0 0,0 0.004,0.937 0.015,1.343 C -0.776,-0.186 -0.446,-0.016 0,0" />
      </g>
    </g>
  </g>
</svg>
