<?xml version="1.0" encoding="UTF-8" standalone="no"?>
<!-- Created with Inkscape (http://www.inkscape.org/) -->

<svg
   xmlns:dc="http://purl.org/dc/elements/1.1/"
   xmlns:cc="http://creativecommons.org/ns#"
   xmlns:rdf="http://www.w3.org/1999/02/22-rdf-syntax-ns#"
   xmlns:svg="http://www.w3.org/2000/svg"
   xmlns="http://www.w3.org/2000/svg"
   xmlns:sodipodi="http://sodipodi.sourceforge.net/DTD/sodipodi-0.dtd"
   xmlns:inkscape="http://www.inkscape.org/namespaces/inkscape"
   width="256"
   height="256"
   viewBox="0 0 256 256"
   id="svg5332"
   version="1.1"
   inkscape:version="0.91 r13725"
   sodipodi:docname="g+.svg">
  <defs
     id="defs5334" />
  <sodipodi:namedview
     id="base"
     pagecolor="#ffffff"
     bordercolor="#666666"
     borderopacity="1.0"
     inkscape:pageopacity="0.0"
     inkscape:pageshadow="2"
     inkscape:zoom="2.0149341"
     inkscape:cx="84.331838"
     inkscape:cy="136.10325"
     inkscape:document-units="px"
     inkscape:current-layer="layer1"
     showgrid="true"
     units="px"
     width="256px"
     inkscape:window-width="1366"
     inkscape:window-height="727"
     inkscape:window-x="0"
     inkscape:window-y="20"
     inkscape:window-maximized="1">
    <inkscape:grid
       type="xygrid"
       id="grid5894" />
  </sodipodi:namedview>
  <metadata
     id="metadata5337">
    <rdf:RDF>
      <cc:Work
         rdf:about="">
        <dc:format>image/svg+xml</dc:format>
        <dc:type
           rdf:resource="http://purl.org/dc/dcmitype/StillImage" />
        <dc:title />
      </cc:Work>
    </rdf:RDF>
  </metadata>
  <g
     inkscape:label="Layer 1"
     inkscape:groupmode="layer"
     id="layer1"
     transform="translate(0,-796.3622)">
    <g
       transform="matrix(10.009481,0,0,-10.010114,-1313.1991,2990.4371)"
       id="g5965"
       style="fill:#f3f2ec;fill-opacity:1">
      <g
         transform="translate(143.9834,217.3066)"
         id="g58"
         style="fill:#f3f2ec;fill-opacity:1">
        <path
           inkscape:connector-curvature="0"
           id="path60"
           style="fill:#f3f2ec;fill-opacity:1;fill-rule:nonzero;stroke:none"
           d="m 0,0 c -4.726,0 -8.914,-3.043 -10.374,-7.537 -1.46,-4.494 0.139,-9.418 3.962,-12.195 3.824,-2.779 9,-2.779 12.824,0 3.823,2.777 5.422,7.701 3.962,12.195 C 8.914,-3.043 4.726,0 0,0 m 11.401,-7.203 c 1.605,-4.94 -0.153,-10.351 -4.355,-13.403 -4.201,-3.053 -9.891,-3.053 -14.092,0 -4.202,3.052 -5.96,8.463 -4.355,13.403 1.605,4.939 6.208,8.283 11.401,8.283 5.193,0 9.796,-3.344 11.401,-8.283" />
      </g>
      <g
         transform="translate(142.3174,207.1191)"
         id="g62"
         style="fill:#f3f2ec;fill-opacity:1">
        <path
           inkscape:connector-curvature="0"
           id="path64"
           style="fill:#f3f2ec;fill-opacity:1;fill-rule:nonzero;stroke:none"
           d="m 0,0 c -0.001,-0.024 -0.004,-0.046 -0.004,-0.065 0,-0.505 0.002,-1.597 0.002,-1.597 l 2.213,0 c 0,-0.164 -0.194,-0.824 -0.813,-1.244 -0.362,-0.245 -0.77,-0.359 -1.201,-0.386 -0.305,-0.02 -0.605,0.011 -0.898,0.104 -0.923,0.296 -1.611,1.132 -1.705,2.15 -0.023,0.251 -0.006,0.502 0.051,0.75 0.274,1.203 1.414,2.096 2.72,1.903 C 0.943,1.529 1.276,1.289 1.58,1.029 1.979,1.43 2.376,1.825 2.783,2.233 2.684,2.305 2.456,2.537 2.05,2.771 1.443,3.122 0.789,3.298 0.088,3.306 -0.043,3.307 -0.176,3.299 -0.307,3.293 -0.539,3.284 -0.766,3.244 -0.989,3.188 -1.883,2.959 -2.625,2.489 -3.208,1.772 -3.767,1.084 -4.067,0.292 -4.122,-0.591 c -0.024,-0.374 0.005,-0.747 0.087,-1.113 0.233,-1.025 0.77,-1.852 1.618,-2.472 0.657,-0.481 1.396,-0.737 2.208,-0.782 0.456,-0.024 0.91,0.018 1.355,0.134 0.829,0.217 1.517,0.649 2.034,1.338 C 3.93,-2.49 4.11,-1.213 3.89,0 L 0,0 Z" />
      </g>
      <g
         transform="translate(151.2085,207.0654)"
         id="g66"
         style="fill:#f3f2ec;fill-opacity:1">
        <path
           inkscape:connector-curvature="0"
           id="path68"
           style="fill:#f3f2ec;fill-opacity:1;fill-rule:nonzero;stroke:none"
           d="m 0,0 -1.401,0 0,1.401 0,0.041 -0.041,0 -1.046,0 -0.042,0 0,-0.041 0,-1.401 -1.402,0 -0.04,0 0,-0.041 0,-1.046 0,-0.042 0.04,0 1.402,0 0,-1.402 0,-0.041 0.042,0 1.046,0 0.041,0 0,0.041 0,1.402 1.401,0 0.042,0 0,0.042 0,1.046 L 0.042,0 0,0 Z" />
      </g>
    </g>
  </g>
</svg>
