<?xml version="1.0" encoding="UTF-8" standalone="no"?>
<!-- Created with Inkscape (http://www.inkscape.org/) -->

<svg
   xmlns:dc="http://purl.org/dc/elements/1.1/"
   xmlns:cc="http://creativecommons.org/ns#"
   xmlns:rdf="http://www.w3.org/1999/02/22-rdf-syntax-ns#"
   xmlns:svg="http://www.w3.org/2000/svg"
   xmlns="http://www.w3.org/2000/svg"
   xmlns:sodipodi="http://sodipodi.sourceforge.net/DTD/sodipodi-0.dtd"
   xmlns:inkscape="http://www.inkscape.org/namespaces/inkscape"
   width="640"
   height="360"
   viewBox="0 0 640.00001 360.00001"
   id="svg2"
   version="1.1"
   inkscape:version="0.91 r13725"
   sodipodi:docname="jnanagni-emb-02.svg">
  <defs
     id="defs4">
    <inkscape:path-effect
       effect="spiro"
       id="path-effect4766"
       is_visible="true" />
    <inkscape:path-effect
       effect="spiro"
       id="path-effect4762"
       is_visible="true" />
    <inkscape:path-effect
       effect="spiro"
       id="path-effect4758"
       is_visible="true" />
    <inkscape:path-effect
       effect="spiro"
       id="path-effect4746"
       is_visible="true" />
  </defs>
  <sodipodi:namedview
     id="base"
     pagecolor="#000811"
     bordercolor="#666666"
     borderopacity="1.0"
     inkscape:pageopacity="0"
     inkscape:pageshadow="2"
     inkscape:zoom="0.90509668"
     inkscape:cx="158.99699"
     inkscape:cy="173.82415"
     inkscape:document-units="px"
     inkscape:current-layer="layer1"
     showgrid="false"
     inkscape:showpageshadow="false"
     units="px"
     showborder="false"
     inkscape:window-width="1366"
     inkscape:window-height="727"
     inkscape:window-x="0"
     inkscape:window-y="20"
     inkscape:window-maximized="1">
    <inkscape:grid
       type="xygrid"
       id="grid4136" />
  </sodipodi:namedview>
  <metadata
     id="metadata7">
    <rdf:RDF>
      <cc:Work
         rdf:about="">
        <dc:format>image/svg+xml</dc:format>
        <dc:type
           rdf:resource="http://purl.org/dc/dcmitype/StillImage" />
        <dc:title></dc:title>
      </cc:Work>
    </rdf:RDF>
  </metadata>
  <g
     inkscape:label="Layer 1"
     inkscape:groupmode="layer"
     id="layer1"
     transform="translate(0,-692.36216)">
    <g
       transform="translate(-3.4925,688.36216)"
       style="font-style:normal;font-weight:normal;font-size:70px;line-height:125%;font-family:sans-serif;text-align:center;letter-spacing:48.29000092px;word-spacing:0px;text-anchor:middle;fill:#ffffff;fill-opacity:1;stroke:none;stroke-width:1px;stroke-linecap:butt;stroke-linejoin:miter;stroke-opacity:1"
       id="flowRoot4138">
      <path
         d="m 169.77828,118.74625 c 1.89,0.27 3.33,-0.18 4.41,-1.62 0.54,-0.63 0.81,-1.71 0.81,-3.24 l 0,-52.38 9.72,0 0,53.91 c 0,3.6 -0.9,6.93 -3.15,9.36 -2.25,2.43 -6.03,3.87 -11.79,3.51 l 0,-9.54 z"
         style="font-style:normal;font-variant:normal;font-weight:500;font-stretch:normal;font-size:90px;font-family:'League Gothic';-inkscape-font-specification:'League Gothic Medium';text-align:center;letter-spacing:10px;text-anchor:middle;fill:#ffffff;fill-opacity:1"
         id="path4801" />
      <path
         d="m 211.73109,93.18625 -0.81,-3.06 -0.54,0 0,37.53 -8.91,0 0,-66.15 8.64,0 9.45,34.47 0.81,3.06 0.54,0 0,-37.53 8.91,0 0,66.15 -8.64,0 -9.45,-34.47 z"
         style="font-style:normal;font-variant:normal;font-weight:500;font-stretch:normal;font-size:90px;font-family:'League Gothic';-inkscape-font-specification:'League Gothic Medium';text-align:center;letter-spacing:10px;text-anchor:middle;fill:#ffffff;fill-opacity:1"
         id="path4803" />
      <path
         d="m 244.27891,127.65625 9.99,-66.15 11.88,0 9.99,66.15 -9.45,0 -1.8,-13.5 -9.36,0 -1.8,13.5 -9.45,0 z m 16.47,-44.64 -0.27,-1.71 -0.54,0 -0.27,1.71 -2.79,20.88 6.66,0 -2.79,-20.88 z"
         style="font-style:normal;font-variant:normal;font-weight:500;font-stretch:normal;font-size:90px;font-family:'League Gothic';-inkscape-font-specification:'League Gothic Medium';text-align:center;letter-spacing:10px;text-anchor:middle;fill:#ffffff;fill-opacity:1"
         id="path4805" />
      <path
         d="m 300.81313,93.18625 -0.81001,-3.06 -0.54,0 0,37.53 -8.90999,0 0,-66.15 8.63999,0 9.45,34.47 0.81,3.06 0.54001,0 0,-37.53 8.90999,0 0,66.15 -8.64,0 -9.44999,-34.47 z"
         style="font-style:normal;font-variant:normal;font-weight:500;font-stretch:normal;font-size:90px;font-family:'League Gothic';-inkscape-font-specification:'League Gothic Medium';text-align:center;letter-spacing:10px;text-anchor:middle;fill:#ffffff;fill-opacity:1"
         id="path4807" />
      <path
         d="m 333.36094,127.65625 9.99,-66.15 11.88,0 9.99,66.15 -9.45,0 -1.8,-13.5 -9.36,0 -1.8,13.5 -9.45,0 z m 16.47,-44.64 -0.27,-1.71 -0.54,0 -0.27,1.71 -2.79,20.88 6.66,0 -2.79,-20.88 z"
         style="font-style:normal;font-variant:normal;font-weight:500;font-stretch:normal;font-size:90px;font-family:'League Gothic';-inkscape-font-specification:'League Gothic Medium';text-align:center;letter-spacing:10px;text-anchor:middle;fill:#ffffff;fill-opacity:1"
         id="path4809" />
      <path
         d="m 395.20516,85.26625 0,-10.17 c 0,-1.8 -0.36,-3.06 -1.26,-4.14 -0.45,-0.45 -1.17,-0.72 -1.98,-0.72 -1.71,0 -2.52,1.26 -2.88,2.43 -0.27,0.72 -0.36,1.53 -0.36,2.43 l 0,39.78 c 0,1.89 0.45,3.15 1.35,4.14 0.45,0.45 1.08,0.72 1.89,0.72 1.71,0 2.52,-1.08 2.88,-2.43 0.27,-0.63 0.36,-1.44 0.36,-2.43 l 0,-11.97 -3.87,0 0,-8.19 13.59,0 0,32.94 -5.76,0 -1.17,-3.15 c -1.8,2.25 -4.41,3.87 -7.56,3.87 -3.15,0 -5.31,-0.81 -6.93,-2.25 -1.62,-1.35 -2.7,-3.06 -3.42,-4.86 -0.81,-2.07 -1.17,-4.5 -1.08,-7.2 l 0,-38.97 c 0.09,-2.61 0.63,-5.04 1.62,-7.11 0.81,-1.8 1.98,-3.6 3.78,-4.95 1.8,-1.35 4.32,-2.25 7.56,-2.25 3.24,0 5.67,0.9 7.47,2.25 1.8,1.35 3.06,3.15 3.87,4.95 0.99,2.07 1.53,4.5 1.62,7.11 l 0,10.17 -9.72,0 z"
         style="font-style:normal;font-variant:normal;font-weight:500;font-stretch:normal;font-size:90px;font-family:'League Gothic';-inkscape-font-specification:'League Gothic Medium';text-align:center;letter-spacing:10px;text-anchor:middle;fill:#ffffff;fill-opacity:1"
         id="path4811" />
      <path
         d="m 432.23891,93.18625 -0.81,-3.06 -0.54,0 0,37.53 -8.91,0 0,-66.15 8.64,0 9.45,34.47 0.81,3.06 0.54,0 0,-37.53 8.91,0 0,66.15 -8.64,0 -9.45,-34.47 z"
         style="font-style:normal;font-variant:normal;font-weight:500;font-stretch:normal;font-size:90px;font-family:'League Gothic';-inkscape-font-specification:'League Gothic Medium';text-align:center;letter-spacing:10px;text-anchor:middle;fill:#ffffff;fill-opacity:1"
         id="path4813" />
      <path
         d="m 467.48672,61.50625 9.72,0 0,66.15 -9.72,0 0,-66.15 z"
         style="font-style:normal;font-variant:normal;font-weight:500;font-stretch:normal;font-size:90px;font-family:'League Gothic';-inkscape-font-specification:'League Gothic Medium';text-align:center;letter-spacing:10px;text-anchor:middle;fill:#ffffff;fill-opacity:1"
         id="path4815" />
    </g>
    <g
       transform="translate(5.4317188,684.36216)"
       style="font-style:normal;font-weight:normal;font-size:25px;line-height:125%;font-family:sans-serif;text-align:center;letter-spacing:0px;word-spacing:0px;text-anchor:middle;fill:#f9f9f9;fill-opacity:1;stroke:none;stroke-width:1px;stroke-linecap:butt;stroke-linejoin:miter;stroke-opacity:1"
       id="flowRoot4748">
      <path
         d="m 167.90633,147.87406 0,-2.4975 7.02,0 0,2.4975 -2.295,0 0,14.04 -2.43,0 0,-14.04 -2.295,0 z"
         style="font-style:normal;font-variant:normal;font-weight:500;font-stretch:normal;font-size:22.5px;font-family:'League Gothic';-inkscape-font-specification:'League Gothic Medium';letter-spacing:10px;fill:#f9f9f9;stroke:none"
         id="path4818" />
      <path
         d="m 190.20047,154.71406 -1.89,0 0,7.2 -2.43,0 0,-16.5375 2.43,0 0,6.84 1.89,0 0,-6.84 2.43,0 0,16.5375 -2.43,0 0,-7.2 z"
         style="font-style:normal;font-variant:normal;font-weight:500;font-stretch:normal;font-size:22.5px;font-family:'League Gothic';-inkscape-font-specification:'League Gothic Medium';letter-spacing:10px;fill:#f9f9f9;stroke:none"
         id="path4820" />
      <path
         d="m 204.4498,145.37656 5.5575,0 0,2.4975 -3.1275,0 0,4.3425 2.25,0 0,2.655 -2.25,0 0,4.545 3.1275,0 0,2.4975 -5.5575,0 0,-16.5375 z"
         style="font-style:normal;font-variant:normal;font-weight:500;font-stretch:normal;font-size:22.5px;font-family:'League Gothic';-inkscape-font-specification:'League Gothic Medium';letter-spacing:10px;fill:#f9f9f9;stroke:none"
         id="path4822" />
      <path
         d="m 240.6034,147.87406 -3.3525,0 0,4.3425 2.25,0 0,2.4975 -2.25,0 0,7.2 -2.43,0 0,-16.5375 5.7825,0 0,2.4975 z"
         style="font-style:normal;font-variant:normal;font-weight:500;font-stretch:normal;font-size:22.5px;font-family:'League Gothic';-inkscape-font-specification:'League Gothic Medium';letter-spacing:10px;fill:#f9f9f9;stroke:none"
         id="path4824" />
      <path
         d="m 251.58848,145.37656 2.43,0 0,16.5375 -2.43,0 0,-16.5375 z"
         style="font-style:normal;font-variant:normal;font-weight:500;font-stretch:normal;font-size:22.5px;font-family:'League Gothic';-inkscape-font-specification:'League Gothic Medium';letter-spacing:10px;fill:#f9f9f9;stroke:none"
         id="path4826" />
      <path
         d="m 270.14973,161.91406 -1.26,-6.975 -0.6525,0 0,6.975 -2.43,0 0,-16.5375 2.43,0 c 2.9025,0 4.14,1.6425 4.14,4.77 0,1.6425 -0.4275,3.1275 -1.35,3.7575 l 1.5525,8.01 -2.43,0 z m -1.9125,-9.225 c 0.3375,0 0.7875,-0.045 1.1475,-0.36 0.36,-0.315 0.6525,-0.9225 0.6525,-2.0925 0,-1.17 -0.2925,-1.8 -0.6525,-2.115 -0.36,-0.315 -0.81,-0.3375 -1.1475,-0.3375 l 0,4.905 z"
         style="font-style:normal;font-variant:normal;font-weight:500;font-stretch:normal;font-size:22.5px;font-family:'League Gothic';-inkscape-font-specification:'League Gothic Medium';letter-spacing:10px;fill:#f9f9f9;stroke:none"
         id="path4828" />
      <path
         d="m 283.93711,145.37656 5.5575,0 0,2.4975 -3.1275,0 0,4.3425 2.25,0 0,2.655 -2.25,0 0,4.545 3.1275,0 0,2.4975 -5.5575,0 0,-16.5375 z"
         style="font-style:normal;font-variant:normal;font-weight:500;font-stretch:normal;font-size:22.5px;font-family:'League Gothic';-inkscape-font-specification:'League Gothic Medium';letter-spacing:10px;fill:#f9f9f9;stroke:none"
         id="path4830" />
      <path
         d="m 320.6307,158.51656 c -0.0225,0.675 -0.1575,1.2825 -0.405,1.8 -0.2025,0.45 -0.5175,0.8775 -0.9675,1.215 -0.45,0.36 -1.0575,0.5625 -1.8675,0.5625 -0.81,0 -1.44,-0.2025 -1.89,-0.5625 -0.45,-0.3375 -0.7425,-0.765 -0.945,-1.215 -0.2475,-0.5175 -0.3825,-1.125 -0.405,-1.8 l 0,-9.7425 c 0.0225,-0.6525 0.1575,-1.26 0.405,-1.7775 0.2025,-0.45 0.495,-0.9 0.945,-1.2375 0.45,-0.3375 1.08,-0.5625 1.89,-0.5625 0.81,0 1.4175,0.225 1.8675,0.5625 0.45,0.3375 0.765,0.7875 0.9675,1.2375 0.2475,0.5175 0.3825,1.125 0.405,1.7775 l 0,9.7425 z m -2.43,-9.7425 c 0,-0.45 -0.09,-0.765 -0.315,-1.035 -0.1125,-0.1125 -0.2925,-0.18 -0.495,-0.18 -0.4275,0 -0.63,0.315 -0.72,0.6075 -0.0675,0.18 -0.09,0.3825 -0.09,0.6075 l 0,9.7425 c 0,0.4725 0.1125,0.7875 0.3375,1.035 0.1125,0.1125 0.27,0.18 0.4725,0.18 0.4275,0 0.63,-0.27 0.72,-0.6075 0.0675,-0.1575 0.09,-0.36 0.09,-0.6075 l 0,-9.7425 z"
         style="font-style:normal;font-variant:normal;font-weight:500;font-stretch:normal;font-size:22.5px;font-family:'League Gothic';-inkscape-font-specification:'League Gothic Medium';letter-spacing:10px;fill:#f9f9f9;stroke:none"
         id="path4832" />
      <path
         d="m 338.0448,147.87406 -3.3525,0 0,4.3425 2.25,0 0,2.4975 -2.25,0 0,7.2 -2.43,0 0,-16.5375 5.7825,0 0,2.4975 z"
         style="font-style:normal;font-variant:normal;font-weight:500;font-stretch:normal;font-size:22.5px;font-family:'League Gothic';-inkscape-font-specification:'League Gothic Medium';letter-spacing:10px;fill:#f9f9f9;stroke:none"
         id="path4834" />
      <path
         d="m 365.98906,161.91406 -1.89,0 -2.2275,-16.5375 2.25,0 0.9675,8.595 0.045,0.54 0.18,0 0.0675,-0.54 1.035,-8.595 1.755,0 1.035,8.595 0.0675,0.54 0.18,0 0.045,-0.54 0.9675,-8.595 2.25,0 -2.2275,16.5375 -1.89,0 -1.125,-7.83 -0.135,-0.9675 -0.09,0 -0.135,0.9675 -1.125,7.83 z"
         style="font-style:normal;font-variant:normal;font-weight:500;font-stretch:normal;font-size:22.5px;font-family:'League Gothic';-inkscape-font-specification:'League Gothic Medium';letter-spacing:10px;fill:#f9f9f9;stroke:none"
         id="path4836" />
      <path
         d="m 383.8834,145.37656 2.43,0 0,16.5375 -2.43,0 0,-16.5375 z"
         style="font-style:normal;font-variant:normal;font-weight:500;font-stretch:normal;font-size:22.5px;font-family:'League Gothic';-inkscape-font-specification:'League Gothic Medium';letter-spacing:10px;fill:#f9f9f9;stroke:none"
         id="path4838" />
      <path
         d="m 402.12965,149.80906 c 0,-0.54 -0.0225,-1.1475 -0.18,-1.62 -0.1575,-0.45 -0.405,-0.765 -0.7875,-0.765 -0.63,0.0225 -0.8325,0.675 -0.8325,1.6425 0,0.5625 0.2475,1.1475 0.6075,1.7775 0.36,0.63 0.8325,1.2825 1.305,1.98 0.5625,0.8325 1.125,1.6875 1.5525,2.52 0.4275,0.8325 0.72,1.6875 0.72,2.5875 0,1.1025 -0.18,2.1375 -0.6975,2.9025 -0.5175,0.765 -1.35,1.26 -2.6775,1.26 -1.5525,0 -2.43,-0.585 -2.925,-1.485 -0.495,-0.9 -0.6075,-2.0925 -0.6075,-3.33 l 2.385,-0.225 c 0,0.6975 0.0225,1.395 0.2025,1.9125 0.1575,0.54 0.4275,0.9 0.945,0.9 0.72,0 0.99,-0.765 0.99,-1.8225 0,-0.54 -0.27,-1.17 -0.63,-1.8225 -0.2025,-0.315 -0.405,-0.6525 -0.63,-0.99 -0.4725,-0.675 -0.99,-1.44 -1.53,-2.2725 -0.54,-0.8325 -0.945,-1.6875 -1.1925,-2.565 -0.135,-0.4275 -0.2025,-0.8775 -0.2025,-1.3275 0,-0.9 0.2025,-1.8675 0.72,-2.61 0.5175,-0.72 1.305,-1.2375 2.4525,-1.26 1.4625,-0.0225 2.3175,0.585 2.79,1.4625 0.4725,0.9 0.6075,2.0025 0.6075,2.925 l -2.385,0.225 z"
         style="font-style:normal;font-variant:normal;font-weight:500;font-stretch:normal;font-size:22.5px;font-family:'League Gothic';-inkscape-font-specification:'League Gothic Medium';letter-spacing:10px;fill:#f9f9f9;stroke:none"
         id="path4840" />
      <path
         d="m 415.83652,161.91406 0,-16.5375 1.9125,0 c 2.25,0 3.465,0.45 4.1175,1.71 0.63,1.26 0.72,3.33 0.72,6.57 0,3.24 -0.09,5.2875 -0.72,6.5475 -0.6525,1.26 -1.8675,1.71 -4.1175,1.71 l -1.9125,0 z m 2.43,-2.43 c 0.8325,0 1.305,-0.09 1.5525,-0.9 0.1125,-0.3825 0.2025,-0.9675 0.225,-1.755 0.0225,-0.7875 0.0225,-1.845 0.0225,-3.195 0,-1.35 0,-2.4075 -0.0225,-3.195 -0.0225,-0.765 -0.1125,-1.35 -0.225,-1.755 -0.2475,-0.7875 -0.72,-0.8775 -1.5525,-0.8775 l 0,11.6775 z"
         style="font-style:normal;font-variant:normal;font-weight:500;font-stretch:normal;font-size:22.5px;font-family:'League Gothic';-inkscape-font-specification:'League Gothic Medium';letter-spacing:10px;fill:#f9f9f9;stroke:none"
         id="path4842" />
      <path
         d="m 440.50863,158.51656 c -0.0225,0.675 -0.1575,1.2825 -0.405,1.8 -0.2025,0.45 -0.5175,0.8775 -0.9675,1.215 -0.45,0.36 -1.0575,0.5625 -1.8675,0.5625 -0.81,0 -1.44,-0.2025 -1.89,-0.5625 -0.45,-0.3375 -0.7425,-0.765 -0.945,-1.215 -0.2475,-0.5175 -0.3825,-1.125 -0.405,-1.8 l 0,-9.7425 c 0.0225,-0.6525 0.1575,-1.26 0.405,-1.7775 0.2025,-0.45 0.495,-0.9 0.945,-1.2375 0.45,-0.3375 1.08,-0.5625 1.89,-0.5625 0.81,0 1.4175,0.225 1.8675,0.5625 0.45,0.3375 0.765,0.7875 0.9675,1.2375 0.2475,0.5175 0.3825,1.125 0.405,1.7775 l 0,9.7425 z m -2.43,-9.7425 c 0,-0.45 -0.09,-0.765 -0.315,-1.035 -0.1125,-0.1125 -0.2925,-0.18 -0.495,-0.18 -0.4275,0 -0.63,0.315 -0.72,0.6075 -0.0675,0.18 -0.09,0.3825 -0.09,0.6075 l 0,9.7425 c 0,0.4725 0.1125,0.7875 0.3375,1.035 0.1125,0.1125 0.27,0.18 0.4725,0.18 0.4275,0 0.63,-0.27 0.72,-0.6075 0.0675,-0.1575 0.09,-0.36 0.09,-0.6075 l 0,-9.7425 z"
         style="font-style:normal;font-variant:normal;font-weight:500;font-stretch:normal;font-size:22.5px;font-family:'League Gothic';-inkscape-font-specification:'League Gothic Medium';letter-spacing:10px;fill:#f9f9f9;stroke:none"
         id="path4844" />
      <path
         d="m 456.16773,161.91406 -1.5525,-10.395 -0.09,-0.6975 -0.135,0 0,11.0925 -2.25,0 0,-16.5375 2.97,0 1.44,7.56 0.1125,0.8775 0.045,0 0.1125,-0.8775 1.44,-7.56 2.97,0 0,16.5375 -2.25,0 0,-11.0925 -0.135,0 -0.09,0.6975 -1.5525,10.395 -1.035,0 z"
         style="font-style:normal;font-variant:normal;font-weight:500;font-stretch:normal;font-size:22.5px;font-family:'League Gothic';-inkscape-font-specification:'League Gothic Medium';letter-spacing:10px;fill:#f9f9f9;stroke:none"
         id="path4846" />
    </g>
    <path
       style="fill:none;fill-rule:evenodd;stroke:#ffffff;stroke-width:8;stroke-linecap:butt;stroke-linejoin:miter;stroke-miterlimit:4;stroke-dasharray:none;stroke-opacity:1"
       d="m 120,787.36216 -80,0 0,210.00004 560,0 0,-210.00004 -80,0"
       id="path4760"
       inkscape:path-effect="#path-effect4762"
       inkscape:original-d="m 120,787.36216 -80,0 0,210.00004 560,0 0,-210.00004 -80,0"
       inkscape:connector-curvature="0" />
    <path
       style="opacity:0.8;fill:none;fill-rule:evenodd;stroke:#ffffff;stroke-width:3;stroke-linecap:butt;stroke-linejoin:miter;stroke-miterlimit:4;stroke-dasharray:none;stroke-opacity:1"
       d="m 240,892.36218 160,0"
       id="path4764"
       inkscape:path-effect="#path-effect4766"
       inkscape:original-d="m 240,892.36218 160,0"
       inkscape:connector-curvature="0" />
    <flowRoot
       xml:space="preserve"
       id="flowRoot4768"
       style="fill:black;stroke:none;stroke-opacity:1;stroke-width:1px;stroke-linejoin:miter;stroke-linecap:butt;fill-opacity:1;font-family:sans-serif;font-style:normal;font-weight:normal;font-size:40px;line-height:125%;letter-spacing:48.29000092px;word-spacing:0px"><flowRegion
         id="flowRegion4770"><rect
           id="rect4772"
           width="440"
           height="50"
           x="100"
           y="220" /></flowRegion><flowPara
         id="flowPara4774" /></flowRoot>    <flowRoot
       xml:space="preserve"
       id="flowRoot4776"
       style="fill:black;stroke:none;stroke-opacity:1;stroke-width:1px;stroke-linejoin:miter;stroke-linecap:butt;fill-opacity:1;font-family:Ubuntu;font-style:normal;font-weight:normal;font-size:40px;line-height:125%;letter-spacing:1px;word-spacing:0px;-inkscape-font-specification:Ubuntu;font-stretch:normal;font-variant:normal;"><flowRegion
         id="flowRegion4778"><rect
           id="rect4780"
           width="440"
           height="60"
           x="100"
           y="210"
           style="letter-spacing:1px;-inkscape-font-specification:Ubuntu;font-family:Ubuntu;font-weight:normal;font-style:normal;font-stretch:normal;font-variant:normal;" /></flowRegion><flowPara
         id="flowPara4782" /></flowRoot>    <g
       transform="translate(-4.0557861,722.36216)"
       style="font-style:normal;font-variant:normal;font-weight:bold;font-stretch:normal;font-size:40px;line-height:125%;font-family:'Open Sans';-inkscape-font-specification:'Open Sans Bold';text-align:center;letter-spacing:1px;word-spacing:0px;text-anchor:middle;fill:#ffffff;fill-opacity:1;stroke:none;stroke-width:1px;stroke-linecap:butt;stroke-linejoin:miter;stroke-opacity:1"
       id="flowRoot4784">
      <path
         d="m 124.97681,230.84333 q -0.89722,0 -1.56372,-0.18799 l 0,-2.20459 q 0.68359,0.1709 1.24755,0.1709 0.87159,0 1.24756,-0.54688 0.37598,-0.53833 0.37598,-1.69189 l 0,-11.70654 2.64893,0 0,11.68945 q 0,2.1875 -0.99976,3.33252 -0.99976,1.14502 -2.95654,1.14502 z"
         style="font-style:normal;font-variant:normal;font-weight:bold;font-stretch:normal;font-size:17.5px;font-family:'Open Sans';-inkscape-font-specification:'Open Sans Bold';letter-spacing:15px"
         id="path4849" />
      <path
         d="m 158.43384,220.90558 q 0,3.10181 -1.53809,4.76807 -1.53808,1.66626 -4.40918,1.66626 -2.87109,0 -4.40918,-1.66626 -1.53808,-1.66626 -1.53808,-4.78516 0,-3.11889 1.53808,-4.75952 1.54663,-1.64917 4.42627,-1.64917 2.87964,0 4.40064,1.65772 1.52954,1.65771 1.52954,4.76806 z m -9.11743,0 q 0,2.09351 0.79467,3.15308 0.79468,1.05957 2.37549,1.05957 3.17017,0 3.17017,-4.21265 0,-4.22119 -3.15308,-4.22119 -1.58081,0 -2.38403,1.06812 -0.80322,1.05957 -0.80322,3.15307 z"
         style="font-style:normal;font-variant:normal;font-weight:bold;font-stretch:normal;font-size:17.5px;font-family:'Open Sans';-inkscape-font-specification:'Open Sans Bold';letter-spacing:15px"
         id="path4851" />
      <path
         d="m 176.04004,227.16901 0,-12.49267 2.64892,0 0,12.49267 -2.64892,0 z"
         style="font-style:normal;font-variant:normal;font-weight:bold;font-stretch:normal;font-size:17.5px;font-family:'Open Sans';-inkscape-font-specification:'Open Sans Bold';letter-spacing:15px"
         id="path4853" />
      <path
         d="m 207.93335,227.16901 -3.3667,0 -5.43457,-9.45068 -0.0769,0 q 0.16235,2.50366 0.16235,3.57178 l 0,5.8789 -2.36694,0 0,-12.49267 3.34106,0 5.42603,9.35669 0.0598,0 q -0.12817,-2.43531 -0.12817,-3.44361 l 0,-5.91308 2.38403,0 0,12.49267 z"
         style="font-style:normal;font-variant:normal;font-weight:bold;font-stretch:normal;font-size:17.5px;font-family:'Open Sans';-inkscape-font-specification:'Open Sans Bold';letter-spacing:15px"
         id="path4855" />
      <path
         d="m 250.43457,227.16901 -2.64893,0 0,-10.28808 -3.39233,0 0,-2.20459 9.43359,0 0,2.20459 -3.39233,0 0,10.28808 z"
         style="font-style:normal;font-variant:normal;font-weight:bold;font-stretch:normal;font-size:17.5px;font-family:'Open Sans';-inkscape-font-specification:'Open Sans Bold';letter-spacing:15px"
         id="path4857" />
      <path
         d="m 281.00342,227.16901 -2.64038,0 0,-5.39184 -4.94751,0 0,5.39184 -2.64893,0 0,-12.49267 2.64893,0 0,4.89624 4.94751,0 0,-4.89624 2.64038,0 0,12.49267 z"
         style="font-style:normal;font-variant:normal;font-weight:bold;font-stretch:normal;font-size:17.5px;font-family:'Open Sans';-inkscape-font-specification:'Open Sans Bold';letter-spacing:15px"
         id="path4859" />
      <path
         d="m 306.35986,227.16901 -7.19482,0 0,-12.49267 7.19482,0 0,2.17041 -4.5459,0 0,2.74292 4.22974,0 0,2.17041 -4.22974,0 0,3.22143 4.5459,0 0,2.1875 z"
         style="font-style:normal;font-variant:normal;font-weight:bold;font-stretch:normal;font-size:17.5px;font-family:'Open Sans';-inkscape-font-specification:'Open Sans Bold';letter-spacing:15px"
         id="path4861" />
      <path
         d="m 346.12671,227.16901 -2.6062,0 0,-12.49267 7.16064,0 0,2.17041 -4.55444,0 0,3.22143 4.23828,0 0,2.16187 -4.23828,0 0,4.93896 z"
         style="font-style:normal;font-variant:normal;font-weight:bold;font-stretch:normal;font-size:17.5px;font-family:'Open Sans';-inkscape-font-specification:'Open Sans Bold';letter-spacing:15px"
         id="path4863" />
      <path
         d="m 375.31982,227.16901 -7.19482,0 0,-12.49267 7.19482,0 0,2.17041 -4.54589,0 0,2.74292 4.22973,0 0,2.17041 -4.22973,0 0,3.22143 4.54589,0 0,2.1875 z"
         style="font-style:normal;font-variant:normal;font-weight:bold;font-stretch:normal;font-size:17.5px;font-family:'Open Sans';-inkscape-font-specification:'Open Sans Bold';letter-spacing:15px"
         id="path4865" />
      <path
         d="m 400.30884,223.69977 q 0,1.6919 -1.22193,2.66602 -1.21337,0.97412 -3.38379,0.97412 -1.99951,0 -3.53759,-0.75195 l 0,-2.46094 q 1.26465,0.56396 2.13623,0.79468 0.88012,0.23071 1.60644,0.23071 0.87159,0 1.33301,-0.33325 0.46997,-0.33325 0.46997,-0.99121 0,-0.36743 -0.20508,-0.64942 -0.20507,-0.29052 -0.60669,-0.55542 -0.39306,-0.26489 -1.61499,-0.84594 -1.14502,-0.53833 -1.71753,-1.03394 -0.57251,-0.4956 -0.9143,-1.15356 -0.3418,-0.65796 -0.3418,-1.53809 0,-1.65771 1.11939,-2.6062 1.12793,-0.94849 3.11035,-0.94849 0.97412,0 1.85425,0.23072 0.88867,0.23071 1.85424,0.64941 l -0.85449,2.05933 q -0.99975,-0.41016 -1.65771,-0.57251 -0.64942,-0.16236 -1.28174,-0.16236 -0.75196,0 -1.15357,0.35034 -0.40161,0.35035 -0.40161,0.91431 0,0.35034 0.16236,0.61524 0.16235,0.25634 0.51269,0.50415 0.35889,0.23925 1.68335,0.87158 1.75171,0.8374 2.40112,1.68335 0.64942,0.8374 0.64942,2.05932 z"
         style="font-style:normal;font-variant:normal;font-weight:bold;font-stretch:normal;font-size:17.5px;font-family:'Open Sans';-inkscape-font-specification:'Open Sans Bold';letter-spacing:15px"
         id="path4867" />
      <path
         d="m 422.39258,227.16901 -2.64893,0 0,-10.28808 -3.39233,0 0,-2.20459 9.43359,0 0,2.20459 -3.39233,0 0,10.28808 z"
         style="font-style:normal;font-variant:normal;font-weight:bold;font-stretch:normal;font-size:17.5px;font-family:'Open Sans';-inkscape-font-specification:'Open Sans Bold';letter-spacing:15px"
         id="path4869" />
      <path
         d="m 442.72461,227.16901 0,-12.49267 2.64893,0 0,12.49267 -2.64893,0 z"
         style="font-style:normal;font-variant:normal;font-weight:bold;font-stretch:normal;font-size:17.5px;font-family:'Open Sans';-inkscape-font-specification:'Open Sans Bold';letter-spacing:15px"
         id="path4871" />
      <path
         d="m 470.66162,214.67634 2.67456,0 -4.24682,12.49267 -2.88819,0 -4.23828,-12.49267 2.67456,0 2.34985,7.43408 q 0.19654,0.65796 0.40162,1.53808 0.21362,0.87159 0.26489,1.21338 0.094,-0.78613 0.64087,-2.75146 l 2.36694,-7.43408 z"
         style="font-style:normal;font-variant:normal;font-weight:bold;font-stretch:normal;font-size:17.5px;font-family:'Open Sans';-inkscape-font-specification:'Open Sans Bold';letter-spacing:15px"
         id="path4873" />
      <path
         d="m 497.5647,227.16901 -0.90576,-2.97363 -4.55445,0 -0.90576,2.97363 -2.854,0 4.40918,-12.54394 3.23852,0 4.42627,12.54394 -2.854,0 z m -1.53809,-5.19531 q -1.2561,-4.04175 -1.41846,-4.57153 -0.1538,-0.52979 -0.22216,-0.83741 -0.28199,1.09375 -1.61499,5.40894 l 3.25561,0 z"
         style="font-style:normal;font-variant:normal;font-weight:bold;font-stretch:normal;font-size:17.5px;font-family:'Open Sans';-inkscape-font-specification:'Open Sans Bold';letter-spacing:15px"
         id="path4875" />
      <path
         d="m 516.98242,227.16901 0,-12.49267 2.64893,0 0,10.30517 5.06714,0 0,2.1875 -7.71607,0 z"
         style="font-style:normal;font-variant:normal;font-weight:bold;font-stretch:normal;font-size:17.5px;font-family:'Open Sans';-inkscape-font-specification:'Open Sans Bold';letter-spacing:15px"
         id="path4877" />
    </g>
  </g>
</svg>
