<?xml version="1.0" encoding="UTF-8" standalone="no"?>
<!-- Created with Inkscape (http://www.inkscape.org/) -->

<svg
   xmlns:dc="http://purl.org/dc/elements/1.1/"
   xmlns:cc="http://creativecommons.org/ns#"
   xmlns:rdf="http://www.w3.org/1999/02/22-rdf-syntax-ns#"
   xmlns:svg="http://www.w3.org/2000/svg"
   xmlns="http://www.w3.org/2000/svg"
   xmlns:sodipodi="http://sodipodi.sourceforge.net/DTD/sodipodi-0.dtd"
   xmlns:inkscape="http://www.inkscape.org/namespaces/inkscape"
   width="500"
   height="500"
   viewBox="0 0 500.00001 500.00001"
   id="svg2"
   version="1.1"
   inkscape:version="0.91 r13725"
   sodipodi:docname="logo.svg">
  <defs
     id="defs4">
    <inkscape:path-effect
       effect="spiro"
       id="path-effect4190"
       is_visible="true" />
    <inkscape:path-effect
       effect="spiro"
       id="path-effect4186"
       is_visible="true" />
    <inkscape:path-effect
       effect="spiro"
       id="path-effect3531"
       is_visible="true" />
    <inkscape:path-effect
       effect="spiro"
       id="path-effect3526"
       is_visible="true" />
    <inkscape:path-effect
       effect="spiro"
       id="path-effect3472"
       is_visible="true" />
    <inkscape:path-effect
       effect="spiro"
       id="path-effect3468"
       is_visible="true" />
    <inkscape:path-effect
       effect="spiro"
       id="path-effect3464"
       is_visible="true" />
    <inkscape:path-effect
       effect="spiro"
       id="path-effect3460"
       is_visible="true" />
    <inkscape:path-effect
       effect="spiro"
       id="path-effect3456"
       is_visible="true" />
    <inkscape:path-effect
       effect="spiro"
       id="path-effect3452"
       is_visible="true" />
    <inkscape:path-effect
       effect="spiro"
       id="path-effect3448"
       is_visible="true" />
    <inkscape:path-effect
       effect="spiro"
       id="path-effect3444"
       is_visible="true" />
    <inkscape:path-effect
       effect="spiro"
       id="path-effect3440"
       is_visible="true" />
    <inkscape:path-effect
       effect="spiro"
       id="path-effect3436"
       is_visible="true" />
    <inkscape:path-effect
       effect="spiro"
       id="path-effect3432"
       is_visible="true" />
    <inkscape:path-effect
       effect="spiro"
       id="path-effect3428"
       is_visible="true" />
    <inkscape:path-effect
       effect="spiro"
       id="path-effect3424"
       is_visible="true" />
    <inkscape:path-effect
       effect="spiro"
       id="path-effect3420"
       is_visible="true" />
    <inkscape:path-effect
       effect="spiro"
       id="path-effect3416"
       is_visible="true" />
    <inkscape:path-effect
       effect="spiro"
       id="path-effect3412"
       is_visible="true" />
    <inkscape:path-effect
       effect="spiro"
       id="path-effect3408"
       is_visible="true" />
    <inkscape:path-effect
       effect="spiro"
       id="path-effect3404"
       is_visible="true" />
    <inkscape:path-effect
       effect="spiro"
       id="path-effect3400"
       is_visible="true" />
    <inkscape:path-effect
       effect="spiro"
       id="path-effect3396"
       is_visible="true" />
    <inkscape:path-effect
       effect="spiro"
       id="path-effect3392"
       is_visible="true" />
    <inkscape:path-effect
       effect="spiro"
       id="path-effect3388"
       is_visible="true" />
    <inkscape:path-effect
       effect="spiro"
       id="path-effect3384"
       is_visible="true" />
    <inkscape:path-effect
       effect="spiro"
       id="path-effect3380"
       is_visible="true" />
    <inkscape:path-effect
       effect="spiro"
       id="path-effect3376"
       is_visible="true" />
    <inkscape:path-effect
       effect="spiro"
       id="path-effect3372"
       is_visible="true" />
    <inkscape:path-effect
       effect="spiro"
       id="path-effect3368"
       is_visible="true" />
    <inkscape:path-effect
       effect="spiro"
       id="path-effect3364"
       is_visible="true" />
    <inkscape:path-effect
       effect="spiro"
       id="path-effect3360"
       is_visible="true" />
    <inkscape:path-effect
       effect="spiro"
       id="path-effect4190-6"
       is_visible="true" />
  </defs>
  <sodipodi:namedview
     id="base"
     pagecolor="#424242"
     bordercolor="#666666"
     borderopacity="1.0"
     inkscape:pageopacity="0"
     inkscape:pageshadow="2"
     inkscape:zoom="1.6134624"
     inkscape:cx="240.27382"
     inkscape:cy="297.93854"
     inkscape:document-units="px"
     inkscape:current-layer="layer1"
     showgrid="false"
     units="px"
     inkscape:showpageshadow="false"
     inkscape:window-width="1366"
     inkscape:window-height="727"
     inkscape:window-x="0"
     inkscape:window-y="20"
     inkscape:window-maximized="1">
    <inkscape:grid
       type="xygrid"
       id="grid4182" />
  </sodipodi:namedview>
  <metadata
     id="metadata7">
    <rdf:RDF>
      <cc:Work
         rdf:about="">
        <dc:format>image/svg+xml</dc:format>
        <dc:type
           rdf:resource="http://purl.org/dc/dcmitype/StillImage" />
        <dc:title />
      </cc:Work>
    </rdf:RDF>
  </metadata>
  <g
     inkscape:label="Layer 1"
     inkscape:groupmode="layer"
     id="layer1"
     transform="translate(0,-552.36216)">
    <path
       style="fill:#f2f2f2;fill-rule:evenodd;stroke:none;stroke-width:1px;stroke-linecap:butt;stroke-linejoin:miter;stroke-opacity:1"
       d="m 92.324879,756.36216 0,3 314.999991,0 0,-3 -314.999991,0 z"
       id="path4188"
       inkscape:path-effect="#path-effect4190"
       inkscape:original-d="m 92.324879,756.36216 0,3 314.999991,0 0,-3 z"
       inkscape:connector-curvature="0" />
    <path
       style="fill:#f2f2f2;fill-rule:evenodd;stroke:none;stroke-width:1px;stroke-linecap:butt;stroke-linejoin:miter;stroke-opacity:1"
       d="m 92.324879,844.36216 0,3 314.999991,0 0,-3 -314.999991,0 z"
       id="path4188-2"
       inkscape:path-effect="#path-effect4190-6"
       inkscape:original-d="m 92.324879,844.36216 0,3 314.999991,0 0,-3 z"
       inkscape:connector-curvature="0" />
    <g
       id="gring">
      <path
         transform="translate(0,552.36216)"
         id="ringBody"
         d="M 243.5918 2.609375 A 248 248 0 0 0 233.05273 2.921875 L 177.99219 74.074219 A 190.1261 190.12603 89.767472 0 1 192.16211 69.068359 L 243.5918 2.609375 z M 253.84375 2.6621094 L 205.37891 65.291016 A 190.1261 190.12603 89.767472 0 1 209.60938 64.212891 A 190.1261 190.12603 89.767472 0 1 217.52539 62.902344 L 263.85742 3.03125 A 248 248 0 0 0 253.84375 2.6621094 z M 221.94922 3.9648438 A 248 248 0 0 0 210.65625 5.2519531 L 142.4707 93.361328 A 190.1261 190.12603 89.767472 0 1 161.91602 81.542969 L 221.94922 3.9648438 z M 273.38281 4.0253906 L 229.25195 61.052734 A 190.1261 190.12603 89.767472 0 1 240.08789 60.357422 L 282.7793 5.1894531 A 248 248 0 0 0 273.38281 4.0253906 z M 291.94531 6.6503906 L 250.65039 60.011719 A 190.1261 190.12603 89.767472 0 1 260.66797 60.373047 L 300.77344 8.546875 A 248 248 0 0 0 291.94531 6.6503906 z M 198.6875 7.4121094 A 248 248 0 0 0 197.31641 7.6601562 A 248 248 0 0 0 185.78711 10.777344 L 2.3203125 247.85938 A 248 248 0 0 0 2.7753906 260.57617 L 89.173828 148.92773 A 190.1261 190.12603 89.767472 0 1 111.64453 119.89062 L 198.6875 7.4121094 z M 309.41797 10.679688 L 270.37695 61.130859 A 190.1261 190.12603 89.767472 0 1 279.68945 62.404297 L 317.91406 13.009766 A 248 248 0 0 0 309.41797 10.679688 z M 172.6875 14.396484 A 248 248 0 0 0 158.0293 20.037109 L 4.2714844 218.72656 A 248 248 0 0 0 2.5820312 234.21094 L 172.6875 14.396484 z M 326.11523 15.714844 L 288.73828 64.013672 A 190.1261 190.12603 89.767472 0 1 297.41992 66.101562 L 334.13672 18.65625 A 248 248 0 0 0 326.11523 15.714844 z M 342.15625 21.599609 L 305.9375 68.400391 A 190.1261 190.12603 89.767472 0 1 314.04492 71.230469 L 349.75977 25.080078 A 248 248 0 0 0 342.15625 21.599609 z M 142.42188 26.898438 A 248 248 0 0 0 125.14258 35.921875 L 11.640625 182.5918 A 248 248 0 0 0 7.1347656 201.7168 L 142.42188 26.898438 z M 357.3125 28.625 L 322.11328 74.111328 A 190.1261 190.12603 89.767472 0 1 329.68164 77.636719 L 364.7168 32.363281 A 248 248 0 0 0 357.3125 28.625 z M 371.81641 36.492188 L 337.24805 81.162109 A 190.1261 190.12603 89.767472 0 1 344.40625 85.216797 L 378.80273 40.767578 A 248 248 0 0 0 371.81641 36.492188 z M 385.79102 45.044922 L 351.46484 89.408203 A 190.1261 190.12603 89.767472 0 1 358.27539 93.90625 L 392.39258 49.820312 A 248 248 0 0 0 385.79102 45.044922 z M 104.32422 49.515625 A 248 248 0 0 0 72.017578 77.962891 L 37.775391 122.21094 A 248 248 0 0 0 19.632812 158.95508 L 104.32422 49.515625 z M 398.95117 54.648438 L 364.82812 98.742188 A 190.1261 190.12603 89.767472 0 1 371.30859 103.67383 L 405.375 59.65625 A 248 248 0 0 0 398.95117 54.648438 z M 411.51758 65.021484 L 377.36328 109.1582 A 190.1261 190.12603 89.767472 0 1 383.41602 114.64062 L 417.53711 70.546875 A 248 248 0 0 0 411.51758 65.021484 z M 423.56055 76.072266 L 389.05469 120.66016 A 190.1261 190.12603 89.767472 0 1 394.60156 126.79688 L 429.20703 82.078125 A 248 248 0 0 0 423.56055 76.072266 z M 434.79297 88.164062 L 399.87305 133.28906 A 190.1261 190.12603 89.767472 0 1 404.89453 140.10547 L 440.25391 94.414062 A 248 248 0 0 0 434.79297 88.164062 z M 445.42188 101.04102 L 409.76172 147.11914 A 190.1261 190.12603 89.767472 0 1 414.22656 154.66016 L 450.4707 107.82422 A 248 248 0 0 0 445.42188 101.04102 z M 455.51758 114.60742 L 418.62695 162.2793 A 190.1261 190.12603 89.767472 0 1 422.48828 170.5918 L 460.14062 121.9375 A 248 248 0 0 0 455.51758 114.60742 z M 464.7207 129.32617 L 426.32812 178.9375 A 190.1261 190.12603 89.767472 0 1 429.52148 188.11328 L 469.29883 136.71484 A 248 248 0 0 0 464.7207 129.32617 z M 473.29492 144.85547 L 432.66602 197.35742 A 190.1261 190.12603 89.767472 0 1 435.2168 207.36914 L 477.29102 153 A 248 248 0 0 0 473.29492 144.85547 z M 480.79883 161.76953 L 437.19531 218.11719 A 190.1261 190.12603 89.767472 0 1 438.94141 229.16211 L 484.30859 170.54102 A 248 248 0 0 0 480.79883 161.76953 z M 487.25195 180.04102 L 439.73047 241.45117 A 190.1261 190.12603 89.767472 0 1 439.8457 254.60938 L 490.19922 189.54102 A 248 248 0 0 0 487.25195 180.04102 z M 71.572266 184.98047 L 3.2871094 273.21875 A 248 248 0 0 0 4.8457031 284.50781 L 65.134766 206.60156 A 190.1261 190.12603 89.767472 0 1 71.572266 184.98047 z M 492.73242 199.57227 L 439.06836 268.91602 A 190.1261 190.12603 89.767472 0 1 436.85938 285.07617 L 494.61914 210.4375 A 248 248 0 0 0 492.73242 199.57227 z M 495.84766 222.1543 L 432.08203 304.55273 A 190.1261 190.12603 89.767472 0 1 421.5 331.5332 L 497.07617 233.87305 A 248 248 0 0 0 495.84766 222.1543 z M 61.884766 224.10742 L 6.40625 295.79883 A 248 248 0 0 0 7.6601562 302.68359 A 248 248 0 0 0 8.6210938 306.24023 L 60.371094 239.36914 A 190.1261 190.12603 89.767472 0 1 61.884766 224.10742 z M 497.24023 246.96875 L 308.61523 490.71289 A 248 248 0 0 0 321.68945 487.125 L 497.24023 260.27148 A 248 248 0 0 0 497.24023 246.96875 z M 59.929688 253.24414 L 11.287109 316.10156 A 248 248 0 0 0 14.375 325.41797 L 60.716797 265.5332 A 190.1261 190.12603 89.767472 0 1 59.929688 253.24414 z M 496.04297 275.125 L 335.76367 482.24414 A 248 248 0 0 0 350.48633 476.52344 L 494.12695 290.9082 A 248 248 0 0 0 496.04297 275.125 z M 62.021484 277.15234 L 17.462891 334.73242 A 248 248 0 0 0 21.095703 343.34375 L 63.835938 288.11328 A 190.1261 190.12603 89.767472 0 1 62.021484 277.15234 z M 66.234375 298.32031 L 24.726562 351.95703 A 248 248 0 0 0 28.865234 359.91211 L 69.097656 307.92188 A 190.1261 190.12603 89.767472 0 1 66.234375 298.32031 z M 490.5918 308.78125 L 367.37305 468.00586 A 248 248 0 0 0 386.2793 456.88086 L 484.48828 329.97461 A 248 248 0 0 0 490.5918 308.78125 z M 72.292969 317.10156 L 33.005859 367.86719 A 248 248 0 0 0 37.566406 375.28125 L 75.84375 325.81836 A 190.1261 190.12603 89.767472 0 1 72.292969 317.10156 z M 79.707031 334.13281 L 42.126953 382.69531 A 248 248 0 0 0 47.070312 389.61133 L 83.845703 342.08789 A 190.1261 190.12603 89.767472 0 1 79.707031 334.13281 z M 88.310547 349.62305 L 52.013672 396.52734 A 248 248 0 0 0 57.316406 402.98242 L 92.935547 356.95117 A 190.1261 190.12603 89.767472 0 1 88.310547 349.62305 z M 473.26953 357.77539 L 410.44141 438.96289 A 248 248 0 0 0 473.26953 357.77539 z M 97.958984 363.76758 L 62.617188 409.43359 A 248 248 0 0 0 68.261719 415.44727 L 103.00391 370.55273 A 190.1261 190.12603 89.767472 0 1 97.958984 363.76758 z M 108.55078 376.68945 L 73.90625 421.45898 A 248 248 0 0 0 79.878906 427.04688 L 114.0957 382.82617 A 190.1261 190.12603 89.767472 0 1 108.55078 376.68945 z M 120.02344 388.47461 L 85.849609 432.63477 A 248 248 0 0 0 92.142578 437.81055 L 126.07617 393.95703 A 190.1261 190.12603 89.767472 0 1 120.02344 388.47461 z M 371.50977 396.13086 A 190.1261 190.12603 89.767472 0 1 348.79492 412.18164 L 284.51172 495.25 A 248 248 0 0 0 296.12305 493.54688 L 371.50977 396.13086 z M 132.3418 399.16797 L 98.433594 442.98438 A 248 248 0 0 0 105.04297 447.75195 L 138.89453 404.00586 A 190.1261 190.12603 89.767472 0 1 132.3418 399.16797 z M 145.49219 408.78516 L 111.65039 452.51758 A 248 248 0 0 0 118.57227 456.87695 L 152.54688 412.97461 A 190.1261 190.12603 89.767472 0 1 145.49219 408.78516 z M 159.59961 417.16406 L 125.49609 461.23633 A 248 248 0 0 0 132.73633 465.18555 L 167.05273 420.8418 A 190.1261 190.12603 89.767472 0 1 159.59961 417.16406 z M 331.14453 421.68164 A 190.1261 190.12603 89.767472 0 1 315.84961 428.14258 L 262.49023 497.0957 A 248 248 0 0 0 273.30859 496.41992 L 331.14453 421.68164 z M 174.62109 424.36719 L 139.97461 469.13672 A 248 248 0 0 0 147.53516 472.67188 L 182.45508 427.54688 A 190.1261 190.12603 89.767472 0 1 174.62109 424.36719 z M 190.5625 430.37695 L 155.09375 476.20898 A 248 248 0 0 0 162.97852 479.32617 L 198.83203 432.99609 A 190.1261 190.12603 89.767472 0 1 190.5625 430.37695 z M 301.91016 432.85156 A 190.1261 190.12603 89.767472 0 1 290.38867 435.78711 A 190.1261 190.12603 89.767472 0 1 289.1875 435.98633 L 241.99609 496.9668 A 248 248 0 0 0 252.15234 497.15039 L 301.91016 432.85156 z M 207.51172 435.08398 L 170.86328 482.44336 A 248 248 0 0 0 179.06836 485.14648 L 216.29102 437.04688 A 190.1261 190.12603 89.767472 0 1 207.51172 435.08398 z M 277.37695 437.94141 A 190.1261 190.12603 89.767472 0 1 266.07031 439.24805 L 222.76758 495.20508 A 248 248 0 0 0 232.26953 496.23047 L 277.37695 437.94141 z M 225.60156 438.31836 L 187.27148 487.84766 A 248 248 0 0 0 195.51562 490.50195 L 235.00586 439.4707 A 190.1261 190.12603 89.767472 0 1 225.60156 438.31836 z M 245.02539 439.83203 L 204.44531 492.26953 A 248 248 0 0 0 213.37305 494.03906 L 255.23633 439.94336 A 190.1261 190.12603 89.767472 0 1 245.02539 439.83203 z "
         style="opacity:0.6;fill:#f7f7e9;fill-opacity:1;stroke:none;stroke-width:4;stroke-linecap:round;stroke-linejoin:round;stroke-miterlimit:4;stroke-dasharray:none;stroke-dashoffset:0;stroke-opacity:1" />
      <circle
         transform="matrix(0.97717494,-0.2124362,0.2124362,0.97717494,0,0)"
         r="243.5802"
         cy="837.15723"
         cx="73.842957"
         id="ringOut"
         style="opacity:0.85;fill:none;fill-opacity:1;stroke:#f2f2f2;stroke-width:8.83960342;stroke-linecap:round;stroke-linejoin:round;stroke-miterlimit:4;stroke-dasharray:none;stroke-dashoffset:0;stroke-opacity:1" />
      <ellipse
         ry="182.22142"
         rx="182.22136"
         transform="matrix(0.97717492,-0.21243627,0.21243613,0.97717495,0,0)"
         cy="837.00305"
         cx="73.697334"
         id="ringIn-3"
         style="opacity:0.85;fill:none;fill-opacity:1;stroke:#f2f2f2;stroke-width:6.3607893;stroke-linecap:round;stroke-linejoin:round;stroke-miterlimit:4;stroke-dasharray:none;stroke-dashoffset:0;stroke-opacity:1" />
      <ellipse
         ry="192.39998"
         rx="192.3999"
         transform="matrix(0.97717492,-0.21243627,0.21243613,0.97717495,0,0)"
         cy="837.00305"
         cx="73.697342"
         id="ringIn-36"
         style="opacity:0.9;fill:none;fill-opacity:1;stroke:#f2f2f2;stroke-width:8.69032955;stroke-linecap:round;stroke-linejoin:round;stroke-miterlimit:4;stroke-dasharray:none;stroke-dashoffset:0;stroke-opacity:1" />
    </g>
    <g
       transform="matrix(1.2384927,0,0,1.2384927,-56.589852,508.25641)"
       style="font-style:normal;font-variant:normal;font-weight:normal;font-stretch:normal;font-size:50px;line-height:100%;font-family:'ADAM.CG PRO';-inkscape-font-specification:'ADAM.CG PRO';text-align:center;letter-spacing:0px;word-spacing:0px;text-anchor:middle;fill:#000000;fill-opacity:1;stroke:none;stroke-width:1px;stroke-linecap:butt;stroke-linejoin:miter;stroke-opacity:1"
       id="flowRoot4216">
      <path
         d="m 136.8578,221.54583 q -1.63505,0 -2.49799,1.40796 -0.40877,0.63586 -0.40877,1.45338 l 0,24.84371 q 0,6.13145 -3.13385,9.53781 -2.86134,3.08843 -6.72188,3.08843 -2.99759,0 -6.08603,-1.68047 l 0.13626,-0.45418 q 0.86294,0.18167 1.63505,0.18167 1.86214,0 3.31552,-0.95378 4.04222,-2.54342 4.04222,-9.85573 l 0,-24.70746 q -0.0454,-1.68047 -1.45338,-2.49799 -0.68128,-0.36335 -1.45338,-0.36335 l -0.59044,0 0,-0.45418 13.80711,0 0,0.45418 -0.59044,0 z"
         style="font-style:normal;font-variant:normal;font-weight:bold;font-stretch:normal;font-size:45.41811371px;line-height:100%;font-family:'Cinzel Decorative';-inkscape-font-specification:'Cinzel Decorative, Bold';text-align:center;writing-mode:lr-tb;text-anchor:middle;fill:#f2f2f2"
         id="path4179" />
      <path
         d="m 165.63585,212.50763 0.4996,0 q 0.13626,0.4996 0.13626,0.95378 0,1.40796 -0.90836,2.81592 -1.22629,1.90756 -3.58804,1.90756 -1.31712,0 -3.45177,-1.04461 -2.08924,-1.09004 -2.72509,-1.18087 -0.63585,-0.0908 -1.22629,-0.0908 -0.54502,0 -1.45338,0.63585 -0.86294,0.63586 -1.22629,1.54422 l -0.54501,0 q -0.0454,-0.36335 -0.0454,-0.68127 0,-1.72589 1.09003,-3.4972 1.09004,-1.81672 3.36094,-1.81672 1.22629,0 3.40636,1.13545 2.22549,1.13545 3.95138,1.13545 0.59043,0 1.4988,-0.54501 0.90836,-0.54502 1.22628,-1.27171 z m 16.07802,45.10019 q 0.7721,0.45418 1.72588,0.81752 0.95379,0.40876 1.81673,0.54502 0.90836,0.18167 1.95298,0.18167 1.09003,0 2.22549,-0.27251 l 0.18167,0.45418 q -2.54342,1.22629 -5.13225,1.22629 -5.94977,0 -12.12663,-6.58562 l -21.52819,-22.84531 0,18.576 q 0,1.13546 0.81753,1.95298 0.81752,0.77211 1.95297,0.77211 l 0.86295,0 0,0.45418 -13.76169,0 0,-0.45418 0.81753,0 q 1.18087,0 1.99839,-0.77211 0.81753,-0.81752 0.81753,-1.99839 l 0,-25.47957 q -2.67967,-3.08843 -3.95138,-4.08763 -1.2717,-1.04461 -2.2709,-1.7713 -1.68047,-1.18087 -3.27011,-1.58964 -1.58963,-0.45418 -2.67967,-0.45418 -1.09003,0 -2.36174,0.45418 l -0.18167,-0.45418 q 2.498,-1.45338 5.13225,-1.45338 5.72268,0 12.12663,6.81272 l 20.3019,21.5736 0,-18.89393 q -0.0454,-1.18087 -0.86294,-1.95298 -0.81753,-0.81753 -1.95298,-0.81753 l -0.81753,0 0,-0.45418 13.76169,0 0,0.45418 -0.86294,0 q -1.13546,0 -1.95298,0.81753 -0.81753,0.77211 -0.86295,1.90756 l 0,25.84291 0.72669,0.72669 q 0.27251,0.27251 0.81753,0.95378 0.59043,0.63585 1.04461,1.09003 0.45419,0.4996 1.13546,1.22629 0.72669,0.72669 1.31712,1.27171 0.63586,0.54502 1.45338,1.18087 0.86295,0.63585 1.58964,1.04462 z"
         style="font-style:normal;font-variant:normal;font-weight:bold;font-stretch:normal;font-size:45.41811371px;line-height:100%;font-family:'Cinzel Decorative';-inkscape-font-specification:'Cinzel Decorative, Bold';text-align:center;writing-mode:lr-tb;text-anchor:middle;fill:#f2f2f2"
         id="path4181" />
      <path
         d="m 187.86235,216.05024 0,-2.99759 12.48998,0 0,2.99759 -12.48998,0 z m 34.33609,45.14561 q -2.95218,1.49879 -5.49559,1.49879 -2.54342,0 -4.81432,-0.7721 -2.27091,-0.72669 -4.58723,-2.498 -4.99599,-3.81512 -8.03901,-11.71787 l -1.45338,-3.86054 -10.71867,0 -2.40716,5.72268 q -0.22709,0.59043 -0.22709,0.95378 0,0.36334 0.13625,0.81753 0.18167,0.40876 0.68127,0.7721 0.54502,0.31793 1.18087,0.31793 l 0.36335,0 0,0.45418 -9.71948,0 0,-0.45418 0.40877,0 q 1.04461,0 2.04381,-0.59044 1.04462,-0.63585 1.72589,-1.86214 l 10.12824,-23.11782 q -1.77131,-3.99679 -3.76971,-5.49559 -1.68047,-1.27171 -3.22468,-1.27171 -1.4988,0 -2.81592,0.45418 l -0.0908,-0.45418 q 3.2701,-1.68047 6.2677,-1.68047 3.72428,0 6.67646,2.90676 2.90676,2.86134 5.13225,8.2661 l 6.58562,16.25968 q 3.72429,9.21988 7.63025,12.67166 1.58963,1.40796 3.2701,1.95298 1.68047,0.54501 2.81593,0.54501 1.18087,0 2.2709,-0.2725 l 0.0454,0.45418 z m -34.33609,-19.3027 9.26529,0 -3.17927,-8.40235 q -0.22709,-0.59044 -0.68127,-1.77131 -0.40876,-1.18087 -0.4996,-1.54422 l -4.90515,11.71788 z"
         style="font-style:normal;font-variant:normal;font-weight:bold;font-stretch:normal;font-size:45.41811371px;line-height:100%;font-family:'Cinzel Decorative';-inkscape-font-specification:'Cinzel Decorative, Bold';text-align:center;writing-mode:lr-tb;text-anchor:middle;fill:#f2f2f2"
         id="path4183" />
      <path
         d="m 252.41355,257.60782 q 0.7721,0.45418 1.72589,0.81752 0.95378,0.40876 1.81672,0.54502 0.90836,0.18167 1.95298,0.18167 1.09003,0 2.22549,-0.27251 l 0.18167,0.45418 q -2.54342,1.22629 -5.13225,1.22629 -5.94977,0 -12.12663,-6.58562 l -21.52819,-22.84531 0,18.576 q 0,1.13546 0.81753,1.95298 0.81752,0.77211 1.95297,0.77211 l 0.86295,0 0,0.45418 -13.76169,0 0,-0.45418 0.81753,0 q 1.18087,0 1.99839,-0.77211 0.81753,-0.81752 0.81753,-1.99839 l 0,-25.47957 q -2.22549,-2.54341 -3.36094,-3.54261 -1.13545,-1.04462 -1.9984,-1.72589 -0.90836,-0.68127 -1.72589,-1.13545 -1.90756,-1.09004 -3.04301,-1.27171 -1.18087,-0.18167 -2.18007,-0.18167 -1.04462,0 -2.22549,0.40876 l -0.18167,-0.45418 q 2.498,-1.45338 5.13225,-1.45338 5.72268,0 12.12663,6.81272 l 20.3019,21.5736 0,-18.89393 q -0.0454,-1.18087 -0.86294,-1.95298 -0.81753,-0.81753 -1.95298,-0.81753 l -0.81753,0 0,-0.45418 13.76169,0 0,0.45418 -0.86294,0 q -1.13546,0 -1.95298,0.81753 -0.81753,0.77211 -0.86295,1.90756 l 0,25.84291 0.72669,0.72669 q 0.27251,0.27251 0.81753,0.95378 0.59043,0.63585 1.04462,1.09003 0.45418,0.4996 1.13545,1.22629 0.72669,0.72669 1.31712,1.27171 0.63586,0.54502 1.45338,1.18087 0.86295,0.63585 1.58964,1.04462 z"
         style="font-style:normal;font-variant:normal;font-weight:bold;font-stretch:normal;font-size:45.41811371px;line-height:100%;font-family:'Cinzel Decorative';-inkscape-font-specification:'Cinzel Decorative, Bold';text-align:center;writing-mode:lr-tb;text-anchor:middle;fill:#f2f2f2"
         id="path4185" />
      <path
         d="m 258.56203,216.05024 0,-2.99759 12.48998,0 0,2.99759 -12.48998,0 z m 34.33609,45.14561 q -2.95217,1.49879 -5.49559,1.49879 -2.54341,0 -4.81432,-0.7721 -2.2709,-0.72669 -4.58723,-2.498 -4.99599,-3.81512 -8.039,-11.71787 l -1.45338,-3.86054 -10.71868,0 -2.40716,5.72268 q -0.22709,0.59043 -0.22709,0.95378 0,0.36334 0.13626,0.81753 0.18167,0.40876 0.68127,0.7721 0.54501,0.31793 1.18087,0.31793 l 0.36334,0 0,0.45418 -9.71947,0 0,-0.45418 0.40876,0 q 1.04462,0 2.04381,-0.59044 1.04462,-0.63585 1.72589,-1.86214 l 10.12824,-23.11782 q -1.7713,-3.99679 -3.7697,-5.49559 -1.68047,-1.27171 -3.22469,-1.27171 -1.4988,0 -2.81592,0.45418 l -0.0908,-0.45418 q 3.27011,-1.68047 6.2677,-1.68047 3.72429,0 6.67647,2.90676 2.90675,2.86134 5.13224,8.2661 l 6.58563,16.25968 q 3.72428,9.21988 7.63024,12.67166 1.58964,1.40796 3.27011,1.95298 1.68047,0.54501 2.81592,0.54501 1.18087,0 2.27091,-0.2725 l 0.0454,0.45418 z m -34.33609,-19.3027 9.26529,0 -3.17926,-8.40235 q -0.22709,-0.59044 -0.68128,-1.77131 -0.40876,-1.18087 -0.49959,-1.54422 l -4.90516,11.71788 z"
         style="font-style:normal;font-variant:normal;font-weight:bold;font-stretch:normal;font-size:45.41811371px;line-height:100%;font-family:'Cinzel Decorative';-inkscape-font-specification:'Cinzel Decorative, Bold';text-align:center;writing-mode:lr-tb;text-anchor:middle;fill:#f2f2f2"
         id="path4187" />
      <path
         d="m 323.35735,261.87712 q -1.13545,0 -2.22549,-0.18167 -4.40556,-0.68128 -7.49399,-3.36094 -3.08843,-2.63426 -4.45097,-6.58563 -4.26931,1.77131 -9.21988,1.77131 -8.17526,0 -13.39834,-4.63265 -5.22309,-4.63265 -5.22309,-11.89955 0,-4.85974 2.36174,-8.62944 2.40716,-3.7697 6.72189,-5.81352 4.31472,-2.08923 9.85573,-2.08923 3.63345,0 7.0398,0.72669 3.40636,0.68127 5.4956,1.72589 l 0.0908,7.81191 -0.36334,0 q -1.09004,-4.13305 -4.22389,-6.22228 -3.08843,-2.13465 -7.44857,-2.13465 -5.35934,0 -8.76569,4.13305 -3.36094,4.08763 -3.36094,10.58242 0,6.44937 3.31552,10.49158 3.31552,4.04221 8.5386,4.04221 2.81593,0 4.85974,-1.22628 2.08923,-1.22629 2.81592,-3.27011 l 0,-6.90355 q 0,-0.9992 -0.59043,-1.54422 -0.59044,-0.54502 -1.68047,-0.54502 l -0.72669,0 0,-0.45418 12.76249,0 0,0.45418 -0.68127,0 q -1.13546,0 -1.72589,0.54502 -0.59044,0.54502 -0.54502,1.4988 l 0,7.22148 q 0.0454,2.9976 1.13545,5.58643 2.40716,5.54101 7.99359,6.90355 1.4988,0.36335 3.08843,0.36335 1.63506,0 3.31553,-0.36335 l 0.0908,0.45418 q -3.90596,1.54422 -7.35773,1.54422 z"
         style="font-style:normal;font-variant:normal;font-weight:bold;font-stretch:normal;font-size:45.41811371px;line-height:100%;font-family:'Cinzel Decorative';-inkscape-font-specification:'Cinzel Decorative, Bold';text-align:center;writing-mode:lr-tb;text-anchor:middle;fill:#f2f2f2"
         id="path4189" />
      <path
         d="m 360.90251,257.60782 q 0.77211,0.45418 1.72589,0.81752 0.95378,0.40876 1.81673,0.54502 0.90836,0.18167 1.95298,0.18167 1.09003,0 2.22548,-0.27251 l 0.18168,0.45418 q -2.54342,1.22629 -5.13225,1.22629 -5.94977,0 -12.12664,-6.58562 l -21.52818,-22.84531 0,18.576 q 0,1.13546 0.81752,1.95298 0.81753,0.77211 1.95298,0.77211 l 0.86295,0 0,0.45418 -13.76169,0 0,-0.45418 0.81752,0 q 1.18088,0 1.9984,-0.77211 0.81753,-0.81752 0.81753,-1.99839 l 0,-25.47957 q -2.22549,-2.54341 -3.36094,-3.54261 -1.13546,-1.04462 -1.9984,-1.72589 -0.90836,-0.68127 -1.72589,-1.13545 -1.90756,-1.09004 -3.04301,-1.27171 -1.18087,-0.18167 -2.18007,-0.18167 -1.04462,0 -2.22549,0.40876 l -0.18167,-0.45418 q 2.49799,-1.45338 5.13225,-1.45338 5.72268,0 12.12663,6.81272 l 20.3019,21.5736 0,-18.89393 q -0.0454,-1.18087 -0.86295,-1.95298 -0.81752,-0.81753 -1.95297,-0.81753 l -0.81753,0 0,-0.45418 13.76169,0 0,0.45418 -0.86295,0 q -1.13545,0 -1.95298,0.81753 -0.81752,0.77211 -0.86294,1.90756 l 0,25.84291 0.72669,0.72669 q 0.27251,0.27251 0.81753,0.95378 0.59043,0.63585 1.04461,1.09003 0.45418,0.4996 1.13546,1.22629 0.72669,0.72669 1.31712,1.27171 0.63585,0.54502 1.45338,1.18087 0.86295,0.63585 1.58963,1.04462 z"
         style="font-style:normal;font-variant:normal;font-weight:bold;font-stretch:normal;font-size:45.41811371px;line-height:100%;font-family:'Cinzel Decorative';-inkscape-font-specification:'Cinzel Decorative, Bold';text-align:center;writing-mode:lr-tb;text-anchor:middle;fill:#f2f2f2"
         id="path4191" />
      <path
         d="m 376.12823,252.43015 0.59044,0 0,0.45418 -13.80711,0 0,-0.45418 0.59044,0 q 1.18087,0 1.99839,-0.81753 0.86295,-0.86294 0.90837,-2.04381 l 0,-26.61502 -4.31473,0.18168 q -4.2693,0.18167 -4.2693,3.17927 0,1.22628 0.81753,2.08923 0.86294,0.81752 2.36174,0.81752 0.13625,0 0.27251,0 l 0,0.27251 q -0.90836,0.31793 -1.54422,0.31793 -2.04381,0 -3.13385,-1.45338 -0.7721,-0.9992 -0.7721,-2.27091 0,-1.99839 1.58963,-3.2701 1.54422,-1.31712 4.81432,-1.54422 0.59043,-0.0454 3.81512,-0.18167 7.35774,-0.27251 10.67326,-0.90836 l 0.0908,0.45418 q -1.95298,0.31793 -2.7705,1.31713 -0.77211,0.99919 -0.81753,2.95217 l 0,24.66204 q 0.0454,1.18087 0.86295,2.04381 0.86294,0.81753 2.04381,0.81753 z"
         style="font-style:normal;font-variant:normal;font-weight:bold;font-stretch:normal;font-size:45.41811371px;line-height:100%;font-family:'Cinzel Decorative';-inkscape-font-specification:'Cinzel Decorative, Bold';text-align:center;writing-mode:lr-tb;text-anchor:middle;fill:#f2f2f2"
         id="path4193" />
    </g>
  </g>
</svg>
