<?xml version="1.0" encoding="UTF-8" standalone="no"?>
<!-- Created with Inkscape (http://www.inkscape.org/) -->

<svg
   xmlns:dc="http://purl.org/dc/elements/1.1/"
   xmlns:cc="http://creativecommons.org/ns#"
   xmlns:rdf="http://www.w3.org/1999/02/22-rdf-syntax-ns#"
   xmlns:svg="http://www.w3.org/2000/svg"
   xmlns="http://www.w3.org/2000/svg"
   xmlns:sodipodi="http://sodipodi.sourceforge.net/DTD/sodipodi-0.dtd"
   xmlns:inkscape="http://www.inkscape.org/namespaces/inkscape"
   width="512"
   height="512"
   viewBox="0 0 512.00001 512.00001"
   id="svg2"
   version="1.1"
   inkscape:version="0.91 r13725"
   sodipodi:docname="title-logo.svg">
  <defs
     id="defs4" />
  <sodipodi:namedview
     id="base"
     pagecolor="#fce49c"
     bordercolor="#666666"
     borderopacity="1.0"
     inkscape:pageopacity="1"
     inkscape:pageshadow="2"
     inkscape:zoom="0.98994949"
     inkscape:cx="277.89442"
     inkscape:cy="242.29453"
     inkscape:document-units="px"
     inkscape:current-layer="layer1"
     showgrid="false"
     units="px"
     inkscape:showpageshadow="false"
     inkscape:window-width="1366"
     inkscape:window-height="768"
     inkscape:window-x="0"
     inkscape:window-y="0"
     inkscape:window-maximized="1" />
  <metadata
     id="metadata7">
    <rdf:RDF>
      <cc:Work
         rdf:about="">
        <dc:format>image/svg+xml</dc:format>
        <dc:type
           rdf:resource="http://purl.org/dc/dcmitype/StillImage" />
        <dc:title></dc:title>
      </cc:Work>
    </rdf:RDF>
  </metadata>
  <g
     inkscape:label="Layer 1"
     inkscape:groupmode="layer"
     id="layer1"
     transform="translate(0,-540.36216)">
    <path
       style="opacity:0.9;fill:#ffffff;fill-opacity:1;stroke:none;stroke-width:9;stroke-linecap:round;stroke-linejoin:round;stroke-miterlimit:4;stroke-dasharray:none;stroke-dashoffset:0;stroke-opacity:1"
       d="M 256 0 A 256 256 0 0 0 0 256 A 256 256 0 0 0 256 512 A 256 256 0 0 0 512 256 A 256 256 0 0 0 256 0 z M 256 18.736328 C 386.92513 18.736328 493.26563 125.07487 493.26562 256 C 493.26563 386.92513 386.92513 493.26563 256 493.26562 C 125.07487 493.26562 18.734375 386.92513 18.734375 256 C 18.734375 125.07487 125.07487 18.736328 256 18.736328 z M 256 37.736328 C 135.34323 37.736328 37.734375 135.34323 37.734375 256 C 37.734375 376.65677 135.34323 474.26563 256 474.26562 C 376.65677 474.26562 474.26563 376.65677 474.26562 256 C 474.26563 135.34323 376.65677 37.736328 256 37.736328 z M 213.39844 112.82617 L 347.64062 112.82617 C 352.13579 113.68443 354.38281 115.83069 354.38281 119.26367 C 354.38281 122.94188 352.13579 125.2101 347.64062 126.06836 L 346.41406 126.06836 C 337.28752 126.06836 330.8849 126.43429 327.20703 127.16992 C 323.66538 127.78295 321.14486 129.68526 319.64648 132.87305 C 318.2843 135.93822 317.60352 141.08651 317.60352 148.32031 L 317.60352 329.10352 C 317.60352 345.16501 313.51678 358.46949 305.34375 369.01367 C 297.17073 379.55787 286.13829 387.22029 272.24414 392.00195 C 258.35 396.78361 242.61692 399.17383 225.04492 399.17383 C 214.82863 399.17383 204.47505 397.70233 193.98633 394.75977 C 183.63384 391.8172 174.9842 387.15876 168.03711 380.7832 C 161.09004 374.40765 157.61719 366.43833 157.61719 356.875 C 157.61719 352.21594 158.97878 347.92537 161.70312 344.00195 C 164.42748 339.95593 168.17381 336.76704 172.94141 334.4375 C 177.70901 332.10797 182.68118 330.94336 187.85742 330.94336 C 193.03368 330.94336 197.93698 332.10797 202.56836 334.4375 C 207.33595 336.76704 211.0823 339.95593 213.80664 344.00195 C 216.53099 347.92537 217.89258 352.21594 217.89258 356.875 C 217.89258 361.28884 217.07601 364.96758 215.44141 367.91016 C 213.80679 370.7301 211.83131 373.48819 209.51562 376.18555 C 207.33615 378.88289 206.24609 380.84424 206.24609 382.07031 C 206.24609 384.64505 211.96792 385.93164 223.41016 385.93164 C 230.22101 385.93164 236.21437 383.72634 241.39062 379.3125 C 246.70308 374.89864 249.35938 369.56545 249.35938 363.3125 L 249.35938 147.58398 C 249.35938 140.71799 248.06468 135.75266 245.47656 132.6875 C 242.88844 129.62232 239.27982 127.78295 234.64844 127.16992 C 230.15328 126.43429 223.06986 126.06836 213.39844 126.06836 C 208.90328 125.2101 206.65625 122.94188 206.65625 119.26367 C 206.65625 117.7924 207.26818 116.38188 208.49414 115.0332 C 209.8563 113.56192 211.4914 112.82617 213.39844 112.82617 z M 259.7793 126.06836 C 262.50365 131.09523 263.86719 138.26586 263.86719 147.58398 L 263.86719 364.04688 C 263.86719 370.54503 261.82284 376.67497 257.73633 382.4375 C 272.58399 379.00451 283.82302 372.69161 291.45117 363.49609 C 299.07933 354.17799 302.89258 342.46894 302.89258 328.36914 L 302.89258 147.58398 C 302.89258 138.38846 304.11841 131.21783 306.57031 126.06836 L 259.7793 126.06836 z M 187.85742 344.18555 C 183.90714 344.18555 180.29656 345.41115 177.02734 347.86328 C 173.89436 350.19281 172.32812 353.19679 172.32812 356.875 C 172.32812 367.17397 178.73075 374.83639 191.53516 379.86328 C 192.08002 376.55289 194.19129 372.81316 197.86914 368.64453 C 201.54701 364.3533 203.38672 360.4306 203.38672 356.875 C 203.38672 353.19679 201.82049 350.19281 198.6875 347.86328 C 195.69071 345.41115 192.08016 344.18555 187.85742 344.18555 z "
       transform="translate(0,540.36216)"
       id="path4136" />
  </g>
</svg>
