<?xml version="1.0" encoding="UTF-8" standalone="no"?>
<!-- Created with Inkscape (http://www.inkscape.org/) -->

<svg
   xmlns:dc="http://purl.org/dc/elements/1.1/"
   xmlns:cc="http://creativecommons.org/ns#"
   xmlns:rdf="http://www.w3.org/1999/02/22-rdf-syntax-ns#"
   xmlns:svg="http://www.w3.org/2000/svg"
   xmlns="http://www.w3.org/2000/svg"
   xmlns:sodipodi="http://sodipodi.sourceforge.net/DTD/sodipodi-0.dtd"
   xmlns:inkscape="http://www.inkscape.org/namespaces/inkscape"
   width="256"
   height="256"
   viewBox="0 0 256 256"
   id="svg5332"
   version="1.1"
   inkscape:version="0.91 r13725"
   sodipodi:docname="twitter.svg">
  <defs
     id="defs5334" />
  <sodipodi:namedview
     id="base"
     pagecolor="#ffffff"
     bordercolor="#666666"
     borderopacity="1.0"
     inkscape:pageopacity="0.0"
     inkscape:pageshadow="2"
     inkscape:zoom="2.0149341"
     inkscape:cx="107.35451"
     inkscape:cy="136.10325"
     inkscape:document-units="px"
     inkscape:current-layer="layer1"
     showgrid="true"
     units="px"
     width="256px"
     inkscape:window-width="1366"
     inkscape:window-height="727"
     inkscape:window-x="0"
     inkscape:window-y="20"
     inkscape:window-maximized="1">
    <inkscape:grid
       type="xygrid"
       id="grid5894" />
  </sodipodi:namedview>
  <metadata
     id="metadata5337">
    <rdf:RDF>
      <cc:Work
         rdf:about="">
        <dc:format>image/svg+xml</dc:format>
        <dc:type
           rdf:resource="http://purl.org/dc/dcmitype/StillImage" />
        <dc:title />
      </cc:Work>
    </rdf:RDF>
  </metadata>
  <g
     inkscape:label="Layer 1"
     inkscape:groupmode="layer"
     id="layer1"
     transform="translate(0,-796.3622)">
    <g
       transform="matrix(10.009481,0,0,-10.010114,-935.4733,2990.4371)"
       id="g5301"
       style="fill:#f3f2ec;fill-opacity:1">
      <g
         transform="translate(106.2466,217.3066)"
         id="g30"
         style="fill:#f3f2ec;fill-opacity:1">
        <path
           inkscape:connector-curvature="0"
           id="path32"
           style="fill:#f3f2ec;fill-opacity:1;fill-rule:nonzero;stroke:none"
           d="m 0,0 c -4.726,0 -8.914,-3.043 -10.374,-7.537 -1.46,-4.494 0.139,-9.418 3.962,-12.195 3.824,-2.779 9,-2.779 12.824,0 3.823,2.777 5.422,7.701 3.962,12.195 C 8.914,-3.043 4.726,0 0,0 m 11.401,-7.203 c 1.605,-4.94 -0.153,-10.351 -4.355,-13.403 -4.201,-3.053 -9.891,-3.053 -14.092,0 -4.202,3.052 -5.96,8.463 -4.355,13.403 1.605,4.939 6.208,8.283 11.401,8.283 5.193,0 9.796,-3.344 11.401,-8.283" />
      </g>
      <g
         transform="translate(104.4707,203.7979)"
         id="g34"
         style="fill:#f3f2ec;fill-opacity:1">
        <path
           inkscape:connector-curvature="0"
           id="path36"
           style="fill:#f3f2ec;fill-opacity:1;fill-rule:evenodd;stroke:none"
           d="m 0,0 c -1.208,0.042 -1.962,0.909 -2.162,1.613 0.336,-0.064 0.667,-0.051 0.996,0.03 0.009,0.002 0.017,0.007 0.034,0.015 -0.655,0.153 -1.16,0.502 -1.51,1.067 C -2.875,3.1 -2.986,3.51 -2.982,3.96 -2.656,3.786 -2.314,3.688 -1.948,3.679 -2.44,4.033 -2.77,4.496 -2.905,5.089 -3.039,5.68 -2.952,6.241 -2.655,6.771 -1.397,5.29 0.195,4.477 2.138,4.343 2.125,4.436 2.11,4.516 2.101,4.598 2.036,5.145 2.145,5.654 2.44,6.117 2.81,6.697 3.338,7.058 4.016,7.168 4.798,7.296 5.48,7.073 6.051,6.52 6.089,6.482 6.121,6.471 6.174,6.482 6.652,6.587 7.103,6.759 7.526,7.003 7.536,7.009 7.546,7.014 7.557,7.019 7.559,7.02 7.563,7.02 7.572,7.02 7.389,6.479 7.054,6.062 6.577,5.755 7.027,5.805 7.457,5.924 7.872,6.104 7.875,6.1 7.878,6.096 7.881,6.093 7.792,5.977 7.706,5.857 7.614,5.744 7.367,5.44 7.084,5.173 6.769,4.941 6.742,4.922 6.729,4.903 6.73,4.868 6.743,4.523 6.73,4.179 6.687,3.837 6.598,3.114 6.396,2.426 6.088,1.768 5.77,1.088 5.355,0.475 4.832,-0.064 3.947,-0.979 2.88,-1.57 1.638,-1.845 1.212,-1.938 0.78,-1.985 0.344,-1.998 -0.996,-2.037 -2.235,-1.704 -3.375,-1 c -0.015,0.009 -0.029,0.019 -0.055,0.035 0.811,-0.087 1.583,0.017 2.325,0.32 C -0.711,-0.482 -0.346,-0.271 0,0" />
      </g>
    </g>
  </g>
</svg>
