<?xml version="1.0" encoding="UTF-8" standalone="no"?>
<!-- Created with Inkscape (http://www.inkscape.org/) -->

<svg
   xmlns:dc="http://purl.org/dc/elements/1.1/"
   xmlns:cc="http://creativecommons.org/ns#"
   xmlns:rdf="http://www.w3.org/1999/02/22-rdf-syntax-ns#"
   xmlns:svg="http://www.w3.org/2000/svg"
   xmlns="http://www.w3.org/2000/svg"
   xmlns:sodipodi="http://sodipodi.sourceforge.net/DTD/sodipodi-0.dtd"
   xmlns:inkscape="http://www.inkscape.org/namespaces/inkscape"
   width="256"
   height="256"
   viewBox="0 0 256 256"
   id="svg5332"
   version="1.1"
   inkscape:version="0.91 r13725"
   sodipodi:docname="youtube.svg">
  <defs
     id="defs5334" />
  <sodipodi:namedview
     id="base"
     pagecolor="#ffffff"
     bordercolor="#666666"
     borderopacity="1.0"
     inkscape:pageopacity="0.0"
     inkscape:pageshadow="2"
     inkscape:zoom="2.0149341"
     inkscape:cx="96.303627"
     inkscape:cy="136.10325"
     inkscape:document-units="px"
     inkscape:current-layer="g5313"
     showgrid="true"
     units="px"
     width="256px"
     inkscape:window-width="1366"
     inkscape:window-height="727"
     inkscape:window-x="0"
     inkscape:window-y="20"
     inkscape:window-maximized="1">
    <inkscape:grid
       type="xygrid"
       id="grid5894" />
  </sodipodi:namedview>
  <metadata
     id="metadata5337">
    <rdf:RDF>
      <cc:Work
         rdf:about="">
        <dc:format>image/svg+xml</dc:format>
        <dc:type
           rdf:resource="http://purl.org/dc/dcmitype/StillImage" />
        <dc:title />
      </cc:Work>
    </rdf:RDF>
  </metadata>
  <g
     inkscape:label="Layer 1"
     inkscape:groupmode="layer"
     id="layer1"
     transform="translate(0,-796.3622)">
    <g
       transform="matrix(10.009481,0,0,-10.010114,-557.75253,2604.9796)"
       id="g5313"
       style="fill:#f3f2ec;fill-opacity:1">
      <g
         transform="translate(68.5103,178.7998)"
         id="g208"
         style="fill:#f3f2ec;fill-opacity:1">
        <path
           inkscape:connector-curvature="0"
           id="path210"
           style="fill:#f3f2ec;fill-opacity:1;fill-rule:nonzero;stroke:none"
           d="m 0,0 c -4.726,0 -8.914,-3.043 -10.374,-7.537 -1.46,-4.494 0.139,-9.418 3.962,-12.195 3.824,-2.779 9,-2.779 12.824,0 3.823,2.777 5.422,7.701 3.962,12.195 C 8.914,-3.043 4.726,0 0,0 m 11.401,-7.203 c 1.605,-4.94 -0.153,-10.351 -4.355,-13.403 -4.201,-3.053 -9.891,-3.053 -14.092,0 -4.202,3.052 -5.96,8.463 -4.355,13.403 1.605,4.939 6.208,8.283 11.401,8.283 5.193,0 9.796,-3.344 11.401,-8.283" />
      </g>
      <g
         transform="translate(67.2578,166.3584)"
         id="g212"
         style="fill:#f3f2ec;fill-opacity:1">
        <path
           inkscape:connector-curvature="0"
           id="path214"
           style="fill:#f3f2ec;fill-opacity:1;fill-rule:evenodd;stroke:none"
           d="M 0,0 C 1.055,0.547 2.1,1.089 3.159,1.638 2.099,2.191 1.053,2.736 0,3.286 L 0,0 Z m -2.786,-1.822 c -0.384,0.126 -0.642,0.377 -0.781,0.758 -0.338,0.929 -0.438,4.818 0.213,5.584 0.222,0.261 0.509,0.416 0.85,0.452 C -0.75,5.16 4.67,5.134 5.294,4.908 5.66,4.776 5.92,4.537 6.062,4.171 6.432,3.21 6.444,-0.286 6.013,-1.212 5.896,-1.463 5.705,-1.641 5.463,-1.767 4.809,-2.11 -1.925,-2.105 -2.786,-1.822" />
      </g>
    </g>
  </g>
</svg>
